<svg
  width="40"
  height="24"
  viewBox="0 0 40 24"
  fill="none"
  xmlns="http://www.w3.org/2000/svg"
>
  <path
    d="M4.66582 8.5585C2.10599 4.07197 0.00632312 0.307571 1.93988e-05 0.193369C-0.00654698 0.0788987 1.65475 0.0187217 3.6919 0.059642L7.3956 0.133727L10.4553 5.48279L13.5149 10.8319L17.403 10.9656L21.2908 11.0993L19.2813 13.9814L17.2717 16.8632L13.2956 16.7896L9.31981 16.7158L4.66582 8.5585Z"
    fill="#FF5800"
  />
  <path
    d="M16.3214 6.01769L18.4074 3.00885L20.4937 0L24.3586 0.0040118L28.2236 0.00829105L30.7551 4.48385C32.1472 6.94549 34.2983 10.735 35.5351 12.9046L37.784 16.8495H34.0141H30.2442L27.2507 11.5673L24.2575 6.28515L20.2893 6.15142L16.3214 6.01769Z"
    fill="#FF5800"
  />
</svg>